<svg width="26" height="26" viewBox="0 0 26 26" fill="none" xmlns="http://www.w3.org/2000/svg">
<path d="M8.39585 4.3335C8.39585 4.11801 8.31025 3.91135 8.15788 3.75897C8.00551 3.6066 7.79884 3.521 7.58335 3.521C7.36787 3.521 7.1612 3.6066 7.00883 3.75897C6.85646 3.91135 6.77085 4.11801 6.77085 4.3335V6.30083C5.98052 6.4129 5.24857 6.78055 4.68677 7.34763C4.12497 7.91471 3.7642 8.65006 3.65952 9.44141L3.56527 10.1488C3.54938 10.268 3.53422 10.3879 3.51977 10.5085C3.51103 10.5835 3.51832 10.6596 3.54115 10.7316C3.56398 10.8037 3.60184 10.87 3.65221 10.9263C3.70259 10.9826 3.76434 11.0276 3.83339 11.0583C3.90244 11.089 3.97721 11.1047 4.05277 11.1043H21.9484C22.0239 11.1047 22.0987 11.089 22.1677 11.0583C22.2368 11.0276 22.2985 10.9826 22.3489 10.9263C22.3993 10.87 22.4371 10.8037 22.46 10.7316C22.4828 10.6596 22.4901 10.5835 22.4814 10.5085L22.4359 10.1488L22.3416 9.44141C22.2369 8.65006 21.8762 7.91471 21.3144 7.34763C20.7526 6.78055 20.0206 6.4129 19.2303 6.30083V4.3335C19.2303 4.11801 19.1447 3.91135 18.9923 3.75897C18.8399 3.6066 18.6333 3.521 18.4178 3.521C18.2023 3.521 17.9956 3.6066 17.8432 3.75897C17.6909 3.91135 17.6053 4.11801 17.6053 4.3335V6.1405C14.5419 5.86819 11.4603 5.86819 8.39694 6.1405L8.39585 4.3335ZM22.6904 13.245C22.6854 13.1061 22.6265 12.9746 22.5262 12.8784C22.4259 12.7821 22.2921 12.7287 22.1531 12.7293H3.84694C3.70794 12.7287 3.57415 12.7821 3.47386 12.8784C3.37357 12.9746 3.31467 13.1061 3.3096 13.245C3.24555 15.2055 3.36523 17.1677 3.6671 19.1058C3.77836 19.8199 4.12368 20.4768 4.6488 20.9733C5.17392 21.4697 5.8491 21.7777 6.56827 21.8488L7.86069 21.9767C11.2786 22.3125 14.7214 22.3125 18.1394 21.9767L19.4318 21.8488C20.1509 21.7777 20.8261 21.4697 21.3512 20.9733C21.8764 20.4768 22.2217 19.8199 22.3329 19.1058C22.6348 17.1677 22.7545 15.2055 22.6904 13.245Z" fill="white"/>
</svg>
