<svg width="228" height="38" viewBox="0 0 228 38" fill="none" xmlns="http://www.w3.org/2000/svg">
<mask id="mask0_79_1858" style="mask-type:luminance" maskUnits="userSpaceOnUse" x="10" y="0" width="38" height="38">
<path d="M10.209 0H47.5326V37.5741H10.209V0Z" fill="white"/>
</mask>
<g mask="url(#mask0_79_1858)">
<path fill-rule="evenodd" clip-rule="evenodd" d="M25.817 0.211914C22.1231 3.153 19.7533 7.68723 19.7533 12.7715C19.7533 21.6253 26.9423 28.8143 35.7974 28.8143C40.3608 28.8143 44.4815 26.9057 47.404 23.8413C45.1747 31.7527 37.8982 37.5593 29.2764 37.5593C18.8825 37.5593 10.4436 29.1205 10.4436 18.7266C10.4436 9.51497 17.072 1.83952 25.817 0.211914Z" fill="white"/>
</g>
<path fill-rule="evenodd" clip-rule="evenodd" d="M24.7231 27.8197C23.1153 27.4143 19.357 28.506 18.9418 27.1982C17.8653 23.8034 14.6781 22.7803 13.011 24.5647C12.3548 25.2676 12.0298 26.6034 11.0345 26.8156C9.50151 27.1423 7.98528 25.5968 6.39427 26.4038C5.30351 26.958 6.02682 28.4959 5.05081 29.0856C3.8208 29.8278 0.191394 28.5607 0.00444366 31.095C-0.145117 33.1235 3.51911 33.581 5.18618 33.356C5.89402 33.2607 6.76043 32.7193 7.45795 32.8235C8.68795 33.0065 9.17402 34.4732 10.6258 34.4732C12.2903 34.4732 13.1283 32.6151 14.9308 33.0053C17.1136 33.4768 17.8743 35.415 20.6437 34.6601C21.7203 34.3652 22.1316 33.1895 23.0328 32.6367C24.0926 31.9872 26.2277 31.6974 26.4134 30.3731C26.581 29.1809 25.9815 28.1374 24.7231 27.8197Z" fill="#5D63F1"/>
<path d="M64.4405 30.504C61.7285 30.504 59.4365 29.592 57.5645 27.768C55.7165 25.92 54.7925 23.7 54.7925 21.108C54.7925 18.324 55.6565 16.056 57.3845 14.304C59.1365 12.552 61.3925 11.676 64.1525 11.676C65.9765 11.676 67.5845 12.24 68.9765 13.368L69.0125 3.972H74.1245V21.108C74.1245 23.82 73.2005 26.064 71.3525 27.84C69.5285 29.616 67.2245 30.504 64.4405 30.504ZM61.2005 24.348C62.0645 25.236 63.1445 25.68 64.4405 25.68C65.7365 25.68 66.8165 25.236 67.6805 24.348C68.5685 23.46 69.0125 22.38 69.0125 21.108C69.0125 19.836 68.5685 18.756 67.6805 17.868C66.8165 16.956 65.7365 16.5 64.4405 16.5C63.1445 16.5 62.0645 16.956 61.2005 17.868C60.3365 18.756 59.9045 19.836 59.9045 21.108C59.9045 22.38 60.3365 23.46 61.2005 24.348ZM82.0754 30H76.9634V19.776C76.9634 17.376 77.6354 15.432 78.9794 13.944C80.3474 12.456 82.3034 11.712 84.8474 11.712C86.1194 11.712 87.2234 11.916 88.1594 12.324V17.292C87.2954 16.788 86.3474 16.536 85.3154 16.536C84.3074 16.536 83.5154 16.848 82.9394 17.472C82.3634 18.072 82.0754 18.9 82.0754 19.956V30ZM98.0543 30.468C95.2463 30.468 92.9183 29.58 91.0703 27.804C89.2463 26.028 88.3343 23.736 88.3343 20.928C88.3343 18.312 89.1983 16.092 90.9263 14.268C92.6543 12.444 94.8743 11.532 97.5863 11.532C100.322 11.532 102.494 12.408 104.102 14.16C105.71 15.888 106.514 18.024 106.514 20.568V22.08H93.2663C93.4583 23.28 93.9743 24.24 94.8143 24.96C95.6783 25.68 96.7463 26.04 98.0183 26.04C100.082 26.04 101.546 25.176 102.41 23.448L106.334 25.428C105.566 27.036 104.462 28.284 103.022 29.172C101.582 30.036 99.9263 30.468 98.0543 30.468ZM93.4823 19.236H101.438C101.318 18.3 100.898 17.532 100.178 16.932C99.4823 16.308 98.6063 15.996 97.5503 15.996C96.4703 15.996 95.5703 16.308 94.8503 16.932C94.1303 17.532 93.6743 18.3 93.4823 19.236ZM116.738 30.468C114.194 30.468 112.082 29.556 110.402 27.732C108.746 25.908 107.918 23.676 107.918 21.036C107.918 18.444 108.842 16.236 110.69 14.412C112.562 12.564 114.854 11.64 117.566 11.64C120.35 11.64 122.654 12.54 124.478 14.34C126.326 16.116 127.25 18.348 127.25 21.036V30H122.39V27.912C121.046 29.616 119.162 30.468 116.738 30.468ZM114.326 24.348C115.19 25.236 116.27 25.68 117.566 25.68C118.862 25.68 119.942 25.236 120.806 24.348C121.694 23.436 122.138 22.344 122.138 21.072C122.138 19.8 121.694 18.72 120.806 17.832C119.942 16.92 118.862 16.464 117.566 16.464C116.27 16.464 115.19 16.92 114.326 17.832C113.462 18.72 113.03 19.8 113.03 21.072C113.03 22.344 113.462 23.436 114.326 24.348ZM152.553 11.532C155.337 11.532 157.485 12.408 158.997 14.16C160.533 15.888 161.301 18.06 161.301 20.676V30H156.189V21.54C156.189 20.076 155.853 18.876 155.181 17.94C154.509 16.98 153.513 16.5 152.193 16.5C150.873 16.5 149.877 16.968 149.205 17.904C148.557 18.84 148.233 20.028 148.233 21.468V30H143.121V21.504C143.121 20.04 142.785 18.84 142.113 17.904C141.465 16.968 140.481 16.5 139.161 16.5C137.817 16.5 136.821 16.968 136.173 17.904C135.525 18.84 135.201 20.04 135.201 21.504V30H130.089V20.676C130.089 18.06 130.845 15.888 132.357 14.16C133.869 12.408 136.005 11.532 138.765 11.532C140.445 11.532 141.885 11.88 143.085 12.576C144.309 13.272 145.185 14.244 145.713 15.492C146.265 14.268 147.141 13.308 148.341 12.612C149.565 11.892 150.969 11.532 152.553 11.532ZM173.805 30.504C171.021 30.504 168.717 29.616 166.893 27.84C165.069 26.04 164.157 23.796 164.157 21.108V3.972H169.269V13.332C170.733 12.228 172.341 11.676 174.093 11.676C176.853 11.676 179.097 12.552 180.825 14.304C182.577 16.056 183.453 18.324 183.453 21.108C183.453 23.7 182.529 25.92 180.681 27.768C178.833 29.592 176.541 30.504 173.805 30.504ZM170.565 24.348C171.429 25.236 172.509 25.68 173.805 25.68C175.101 25.68 176.181 25.236 177.045 24.348C177.909 23.46 178.341 22.38 178.341 21.108C178.341 19.836 177.909 18.756 177.045 17.868C176.181 16.956 175.101 16.5 173.805 16.5C172.509 16.5 171.429 16.956 170.565 17.868C169.701 18.756 169.269 19.836 169.269 21.108C169.269 22.38 169.701 23.46 170.565 24.348ZM194.715 16.644C193.347 16.644 192.303 17.124 191.583 18.084C190.887 19.044 190.539 20.256 190.539 21.72V30H185.427V21.108C185.427 18.372 186.231 16.116 187.839 14.34C189.447 12.564 191.739 11.676 194.715 11.676C197.715 11.676 200.019 12.564 201.627 14.34C203.259 16.116 204.075 18.372 204.075 21.108V30H198.963V21.72C198.963 20.256 198.603 19.044 197.883 18.084C197.163 17.124 196.107 16.644 194.715 16.644ZM216.557 30.504C213.773 30.504 211.469 29.616 209.645 27.84C207.821 26.04 206.909 23.796 206.909 21.108V3.972H212.021V13.332C213.485 12.228 215.093 11.676 216.845 11.676C219.605 11.676 221.849 12.552 223.577 14.304C225.329 16.056 226.205 18.324 226.205 21.108C226.205 23.7 225.281 25.92 223.433 27.768C221.585 29.592 219.293 30.504 216.557 30.504ZM213.317 24.348C214.181 25.236 215.261 25.68 216.557 25.68C217.853 25.68 218.933 25.236 219.797 24.348C220.661 23.46 221.093 22.38 221.093 21.108C221.093 19.836 220.661 18.756 219.797 17.868C218.933 16.956 217.853 16.5 216.557 16.5C215.261 16.5 214.181 16.956 213.317 17.868C212.453 18.756 212.021 19.836 212.021 21.108C212.021 22.38 212.453 23.46 213.317 24.348Z" fill="white"/>
</svg>
