<svg width="43" height="43" viewBox="0 0 43 43" fill="none" xmlns="http://www.w3.org/2000/svg">
<path d="M22.8724 14.2956C23.2559 13.9121 23.7112 13.6079 24.2123 13.4003C24.7134 13.1928 25.2505 13.0859 25.7928 13.0859C26.3352 13.0859 26.8723 13.1928 27.3733 13.4003C27.8744 13.6079 28.3297 13.9121 28.7132 14.2956C29.0968 14.6791 29.401 15.1344 29.6085 15.6355C29.8161 16.1366 29.9229 16.6737 29.9229 17.216C29.9229 17.7584 29.8161 18.2955 29.6085 18.7965C29.401 19.2976 29.0968 19.7529 28.7132 20.1364C27.9387 20.911 26.8882 21.3461 25.7928 21.3461C24.6975 21.3461 23.647 20.911 22.8724 20.1364C22.0979 19.3619 21.6627 18.3114 21.6627 17.216C21.6627 16.1207 22.0979 15.0702 22.8724 14.2956ZM26.8123 16.1948C26.6782 16.0608 26.519 15.9545 26.3438 15.882C26.1686 15.8096 25.9809 15.7723 25.7913 15.7724C25.6017 15.7725 25.414 15.8099 25.2389 15.8825C25.0638 15.9552 24.9047 16.0616 24.7707 16.1957C24.5001 16.4665 24.3481 16.8338 24.3483 17.2167C24.3484 17.4062 24.3858 17.594 24.4584 17.7691C24.5311 17.9442 24.6375 18.1033 24.7716 18.2373C25.0424 18.5079 25.4097 18.6598 25.7926 18.6597C26.1754 18.6595 26.5426 18.5072 26.8132 18.2364C27.0838 17.9655 27.2357 17.5983 27.2356 17.2154C27.2354 16.8325 27.0831 16.4654 26.8123 16.1948Z" fill="white"/>
<path d="M36.9478 7.24366C36.9133 6.94193 36.7776 6.66078 36.5629 6.44604C36.3481 6.2313 36.067 6.09564 35.7653 6.06116C32.3664 5.66861 28.9227 6.05008 25.6921 7.177C22.4615 8.30392 19.5277 10.1471 17.1104 12.5685C15.9363 13.7407 14.8939 15.0378 14.0019 16.4367C10.962 16.5541 8.07889 17.8161 5.93042 19.9699C5.04882 20.8524 4.30798 21.8652 3.73384 22.9727C3.61777 23.1973 3.56743 23.4502 3.58862 23.7021C3.6098 23.9541 3.70165 24.195 3.8536 24.3971C4.00555 24.5992 4.21144 24.7543 4.44761 24.8446C4.68378 24.935 4.94064 24.9568 5.18867 24.9077C7.3253 24.4819 9.54024 24.7002 11.5527 25.5348L17.4688 31.4473C18.3041 33.4608 18.5223 35.6771 18.0958 37.8149C18.0466 38.0628 18.0682 38.3196 18.1583 38.5558C18.2484 38.792 18.4033 38.9979 18.6052 39.1501C18.8071 39.3022 19.0478 39.3943 19.2996 39.4158C19.5515 39.4372 19.8043 39.3872 20.029 39.2715C21.1373 38.697 22.1507 37.9555 23.0337 37.0731C25.1866 34.9255 26.4486 32.0438 26.5668 29.0052C27.9671 28.1123 29.2655 27.0687 30.4386 25.8931C32.8596 23.4766 34.7027 20.5437 35.8299 17.3141C36.9571 14.0845 37.3392 10.6418 36.9478 7.24366ZM23.6643 30.5676C23.2655 32.3808 22.334 34.0335 20.9894 35.3137C20.9579 34.1 20.7663 32.8957 20.4196 31.7322C21.5287 31.4271 22.6128 31.0378 23.6625 30.5676M11.2714 22.5839C10.1074 22.2358 8.90253 22.0431 7.68805 22.0106L7.82959 21.869C9.09208 20.603 10.6904 19.7245 12.436 19.3374C11.963 20.3957 11.5748 21.4778 11.2714 22.5839ZM19.0096 14.4677C21.0102 12.4625 23.4143 10.9057 26.0625 9.90054C28.7107 8.89539 31.5423 8.46488 34.3696 8.63757C34.5412 11.4641 34.1101 14.2948 33.1046 16.9419C32.0992 19.5891 30.5425 21.9923 28.5377 23.9922C25.9447 26.5942 22.6834 28.4295 19.1135 29.2955L13.708 23.89C14.5715 20.3206 16.4065 17.0599 19.0096 14.4694" fill="white"/>
<path d="M5.42875 36.2813C5.44075 36.6207 5.58083 36.943 5.82083 37.1833C6.06082 37.4236 6.38292 37.5642 6.72233 37.5766H6.77967C6.98563 37.5835 7.19174 37.5853 7.39779 37.582C7.79554 37.5766 8.34379 37.5587 8.93325 37.5032C9.51733 37.4494 10.1802 37.3545 10.7966 37.186C11.3699 37.0284 12.0884 36.756 12.6115 36.2329C12.9951 35.8494 13.2993 35.3941 13.5068 34.893C13.7144 34.3919 13.8212 33.8548 13.8212 33.3125C13.8212 32.7701 13.7144 32.233 13.5068 31.7319C13.2993 31.2309 12.9951 30.7756 12.6115 30.392C12.228 30.0085 11.7727 29.7043 11.2716 29.4968C10.7706 29.2892 10.2335 29.1824 9.69112 29.1824C8.59576 29.1824 7.54525 29.6175 6.77071 30.392C6.24754 30.9152 5.977 31.6337 5.81933 32.2088C5.65852 32.8193 5.5518 33.4429 5.50042 34.0721C5.43727 34.7881 5.41335 35.5071 5.42875 36.2257V36.2813ZM8.67167 32.293C8.94204 32.0224 9.30885 31.8703 9.69139 31.8701C10.0739 31.8699 10.4409 32.0217 10.7115 32.2921C10.9821 32.5625 11.1342 32.9293 11.1344 33.3118C11.1346 33.6944 10.9828 34.0613 10.7124 34.3319C10.6646 34.3695 10.6122 34.4008 10.5565 34.4251C10.4035 34.4957 10.2447 34.5526 10.0817 34.5953C9.62275 34.7097 9.15546 34.7876 8.68421 34.8282C8.49549 34.8461 8.31274 34.8599 8.13596 34.8694C8.14551 34.6926 8.15925 34.5099 8.17717 34.3212C8.22375 33.8195 8.299 33.3268 8.41008 32.9237C8.46503 32.7218 8.52117 32.5635 8.5785 32.4489C8.60282 32.3932 8.63413 32.3408 8.67167 32.293Z" fill="white"/>
</svg>
