<svg width="35" height="35" viewBox="0 0 35 35" fill="none" xmlns="http://www.w3.org/2000/svg">
<path fill-rule="evenodd" clip-rule="evenodd" d="M26.0473 4.61284L26.2806 4.69159L28.0335 5.27492C28.7088 5.50096 29.3023 5.69784 29.7704 5.91659C30.2779 6.15284 30.7431 6.45617 31.099 6.95055C31.4548 7.44492 31.5962 7.98159 31.6604 8.53721C31.7187 9.052 31.7188 9.67617 31.7188 10.3893V22.3651C31.7188 23.383 31.7187 24.242 31.64 24.9216C31.5583 25.6274 31.3746 26.3245 30.8598 26.8874C30.555 27.2211 30.1847 27.4882 29.7719 27.672C29.0748 27.9812 28.3558 27.9345 27.6602 27.7901C26.9894 27.6501 26.1756 27.3789 25.2102 27.0566L25.1475 27.0362C23.5142 26.4908 22.9527 26.3216 22.4102 26.3405C22.1936 26.3484 21.9782 26.3772 21.7671 26.4266C21.2377 26.5505 20.7419 26.8626 19.3083 27.8178L17.2929 29.1624L17.0888 29.298C15.54 30.332 14.4638 31.0495 13.2038 31.2187C11.9452 31.3878 10.7173 30.978 8.95271 30.3874L8.71938 30.3101L6.96646 29.7268C6.29125 29.5008 5.69771 29.3039 5.22958 29.0851C4.72208 28.8489 4.25687 28.5455 3.90104 28.0497C3.54521 27.5568 3.40375 27.0201 3.33958 26.463C3.28125 25.9483 3.28125 25.3255 3.28125 24.6124V12.6366C3.28125 11.6172 3.28125 10.7583 3.36 10.0801C3.44167 9.3743 3.62542 8.67721 4.14021 8.1143C4.44495 7.78065 4.81533 7.51354 5.22813 7.32971C5.92521 7.01909 6.64563 7.06575 7.33979 7.21159C8.01063 7.35013 8.82437 7.62284 9.78979 7.94513L9.8525 7.96555C11.4858 8.5095 12.0473 8.68013 12.5912 8.66117C12.8074 8.65325 13.0223 8.62443 13.2329 8.57513C13.7623 8.44971 14.2581 8.13763 15.6917 7.18388L17.7071 5.8393L17.9112 5.70221C19.46 4.66971 20.5363 3.95221 21.7948 3.78305C23.0548 3.61388 24.2827 4.02221 26.0473 4.61284ZM22.9688 5.9895V24.1793C23.7504 24.2639 24.5729 24.538 25.6565 24.8997L25.8388 24.961C26.8844 25.3095 27.5771 25.5385 28.1065 25.6493C28.6256 25.7572 28.8021 25.7076 28.8823 25.6726C29.02 25.6116 29.1436 25.5227 29.2454 25.4116C29.3038 25.3474 29.4058 25.1943 29.4671 24.6678C29.5298 24.1312 29.5313 23.4005 29.5313 22.2995V10.4462C29.5313 9.65867 29.5298 9.16284 29.4875 8.78659C29.4467 8.43805 29.3825 8.30825 29.3242 8.2295C29.2673 8.15075 29.1652 8.04721 28.8488 7.89992C28.5046 7.7395 28.0321 7.582 27.2883 7.33263L25.5894 6.7668C24.2958 6.33513 23.5288 6.09159 22.9688 5.9895ZM20.7813 24.4418V6.46638C20.3277 6.72888 19.7458 7.1095 18.9204 7.6593L16.905 9.00388L16.7446 9.11034C15.7413 9.78117 14.9931 10.2799 14.2188 10.5599V28.5353C14.6723 28.2728 15.2542 27.8908 16.0796 27.341L18.095 25.9978L18.2554 25.8914C19.2587 25.2205 20.0069 24.7218 20.7813 24.4418ZM12.0313 29.0137V10.821C11.2496 10.7364 10.4271 10.4622 9.34354 10.1005L9.16125 10.0393C8.11563 9.69075 7.42292 9.4618 6.89208 9.35096C6.37437 9.24305 6.19792 9.29117 6.11917 9.32617C5.98078 9.3875 5.85664 9.47689 5.75458 9.58867C5.69625 9.65138 5.59417 9.8045 5.53292 10.331C5.47021 10.8676 5.46875 11.5997 5.46875 12.7008V24.5541C5.46875 25.3416 5.47021 25.8374 5.5125 26.2137C5.55333 26.5622 5.6175 26.6905 5.67583 26.7708C5.73271 26.8495 5.83479 26.953 6.15125 27.1003C6.49542 27.2608 6.96792 27.4183 7.71167 27.6676L9.41063 28.2335C10.7042 28.6637 11.4698 28.9087 12.0313 29.0122" fill="white"/>
</svg>
