<svg width="35" height="35" viewBox="0 0 35 35" fill="none" xmlns="http://www.w3.org/2000/svg">
<path d="M17.5 4C14.4511 4.00351 11.528 5.22377 9.37212 7.39307C7.21621 9.56237 6.00349 12.5036 6 15.5714C6 18.4643 7.50458 22.2081 10.0262 25.5759C12.5634 28.969 15.3569 31 17.5 31C19.6431 31 22.4366 28.9738 24.9738 25.5759C27.4954 22.2009 29 18.4643 29 15.5714C28.9965 12.5036 27.7838 9.56237 25.6279 7.39307C23.472 5.22377 20.5489 4.00351 17.5 4ZM23.4429 24.4212C21.3621 27.2019 18.9746 29.0714 17.5 29.0714C16.0254 29.0714 13.6379 27.2019 11.5571 24.4212C9.31224 21.4174 7.91667 18.0267 7.91667 15.5714C7.91667 13.014 8.92634 10.5613 10.7236 8.7529C12.5208 6.94451 14.9583 5.92857 17.5 5.92857C20.0417 5.92857 22.4792 6.94451 24.2764 8.7529C26.0737 10.5613 27.0833 13.014 27.0833 15.5714C27.0833 18.0267 25.6878 21.4174 23.4429 24.4212ZM16.5417 18.4643C16.5417 17.1856 16.0368 15.9592 15.1382 15.055C14.2396 14.1508 13.0208 13.6429 11.75 13.6429C11.2417 13.6429 10.7542 13.846 10.3947 14.2077C10.0353 14.5694 9.83333 15.0599 9.83333 15.5714C9.83333 16.8502 10.3382 18.0765 11.2368 18.9807C12.1354 19.8849 13.3542 20.3929 14.625 20.3929C15.1333 20.3929 15.6208 20.1897 15.9803 19.828C16.3397 19.4663 16.5417 18.9758 16.5417 18.4643ZM11.75 15.5714C12.5125 15.5714 13.2438 15.8762 13.7829 16.4187C14.3221 16.9612 14.625 17.6971 14.625 18.4643C13.8625 18.4643 13.1312 18.1595 12.5921 17.617C12.0529 17.0745 11.75 16.3387 11.75 15.5714ZM23.25 13.6429C21.9792 13.6429 20.7604 14.1508 19.8618 15.055C18.9632 15.9592 18.4583 17.1856 18.4583 18.4643C18.4583 18.9758 18.6603 19.4663 19.0197 19.828C19.3792 20.1897 19.8667 20.3929 20.375 20.3929C21.0043 20.3929 21.6273 20.2681 22.2087 20.0258C22.79 19.7835 23.3183 19.4284 23.7632 18.9807C24.2082 18.533 24.5611 18.0015 24.8019 17.4165C25.0427 16.8315 25.1667 16.2046 25.1667 15.5714C25.1667 15.0599 24.9647 14.5694 24.6053 14.2077C24.2458 13.846 23.7583 13.6429 23.25 13.6429ZM20.375 18.4643C20.375 17.6971 20.6779 16.9612 21.2171 16.4187C21.7562 15.8762 22.4875 15.5714 23.25 15.5714C23.25 16.3387 22.9471 17.0745 22.4079 17.617C21.8688 18.1595 21.1375 18.4643 20.375 18.4643ZM20.375 24.25C20.375 24.5057 20.274 24.751 20.0943 24.9319C19.9146 25.1127 19.6708 25.2143 19.4167 25.2143H15.5833C15.3292 25.2143 15.0854 25.1127 14.9057 24.9319C14.726 24.751 14.625 24.5057 14.625 24.25C14.625 23.9943 14.726 23.749 14.9057 23.5681C15.0854 23.3873 15.3292 23.2857 15.5833 23.2857H19.4167C19.6708 23.2857 19.9146 23.3873 20.0943 23.5681C20.274 23.749 20.375 23.9943 20.375 24.25Z" fill="white"/>
</svg>
