<svg width="35" height="35" viewBox="0 0 35 35" fill="none" xmlns="http://www.w3.org/2000/svg">
<path d="M15.3125 17.5L16.1291 15.6975C16.6935 14.4477 16.975 13.8235 17.5175 13.475C18.0585 13.125 18.7425 13.125 20.1133 13.125H20.7185C22.0893 13.125 22.7747 13.125 23.3158 13.475C23.8583 13.825 24.1397 14.4477 24.7056 15.6975L25.5208 17.5M27.7083 17.5H14.0598C12.6364 17.5 11.2073 18.7396 10.0318 19.409C9.53163 19.6933 9.28225 19.8348 9.05183 19.791C8.82288 19.7473 8.58371 19.4688 8.10392 18.9146C7.10496 17.7538 6.02288 17.5 4.37496 17.5C3.56996 17.5 2.91663 18.2612 2.91663 19.2019V26.0065C2.91663 26.9471 3.56996 27.7083 4.37496 27.7083C6.02142 27.7083 7.1035 27.4546 8.10538 26.2938C8.58371 25.7396 8.82288 25.4625 9.05329 25.4187C9.28225 25.3735 9.53163 25.5165 10.0304 25.8008C11.2087 26.4687 12.6379 27.7083 14.0612 27.7083H27.7083C30.1247 27.7083 32.0833 25.4231 32.0833 22.6042C32.0833 19.7852 30.1247 17.5 27.7083 17.5Z" stroke="white" stroke-width="2" stroke-linecap="round" stroke-linejoin="round"/>
<path d="M20.4166 13.1252V7.29183C20.4166 6.90506 20.5703 6.53412 20.8438 6.26063C21.1173 5.98714 21.4882 5.8335 21.875 5.8335H23.3333" stroke="white" stroke-width="2" stroke-linecap="round" stroke-linejoin="round"/>
</svg>
