<svg width="35" height="35" viewBox="0 0 35 35" fill="none" xmlns="http://www.w3.org/2000/svg">
<path d="M25.6986 18.1298L19.2522 15.7478L16.8777 9.2964C16.737 8.91438 16.4826 8.58468 16.1487 8.35179C15.8148 8.11891 15.4176 7.99404 15.0105 7.99404C14.6034 7.99404 14.2061 8.11891 13.8722 8.35179C13.5383 8.58468 13.2839 8.91438 13.1433 9.2964L10.7537 15.7478L4.30235 18.1224C3.92033 18.263 3.59064 18.5174 3.35775 18.8513C3.12487 19.1852 3 19.5824 3 19.9895C3 20.3966 3.12487 20.7939 3.35775 21.1278C3.59064 21.4617 3.92033 21.7161 4.30235 21.8567L10.7537 24.2463L13.1283 30.6976C13.2689 31.0797 13.5233 31.4094 13.8572 31.6422C14.1911 31.8751 14.5884 32 14.9955 32C15.4026 32 15.7998 31.8751 16.1337 31.6422C16.4676 31.4094 16.722 31.0797 16.8627 30.6976L19.2522 24.2463L25.7036 21.8717C26.0856 21.7311 26.4153 21.4767 26.6482 21.1428C26.8811 20.8089 27.006 20.4116 27.006 20.0045C27.006 19.5974 26.8811 19.2002 26.6482 18.8663C26.4153 18.5324 26.0856 18.278 25.7036 18.1373L25.6986 18.1298ZM18.1274 22.5241C17.9917 22.5741 17.8685 22.653 17.7662 22.7552C17.6639 22.8575 17.5851 22.9808 17.535 23.1165L15.003 29.9765L12.4759 23.1215C12.426 22.9843 12.3466 22.8598 12.2434 22.7566C12.1402 22.6534 12.0157 22.574 11.8785 22.5241L5.02348 19.997L11.8785 17.47C12.0157 17.42 12.1402 17.3407 12.2434 17.2375C12.3466 17.1343 12.426 17.0097 12.4759 16.8726L15.003 10.0175L17.53 16.8726C17.5801 17.0083 17.6589 17.1315 17.7612 17.2338C17.8635 17.3361 17.9867 17.4149 18.1224 17.465L24.9825 19.997L18.1274 22.5241ZM19.0023 6.9993C19.0023 6.73413 19.1076 6.47982 19.2951 6.29232C19.4826 6.10481 19.7369 5.99947 20.0021 5.99947H22.0018V3.99982C22.0018 3.73465 22.1071 3.48035 22.2946 3.29284C22.4821 3.10534 22.7364 3 23.0016 3C23.2667 3 23.5211 3.10534 23.7086 3.29284C23.8961 3.48035 24.0014 3.73465 24.0014 3.99982V5.99947H26.0011C26.2662 5.99947 26.5205 6.10481 26.708 6.29232C26.8955 6.47982 27.0009 6.73413 27.0009 6.9993C27.0009 7.26447 26.8955 7.51878 26.708 7.70628C26.5205 7.89379 26.2662 7.99912 26.0011 7.99912H24.0014V9.99877C24.0014 10.2639 23.8961 10.5183 23.7086 10.7058C23.5211 10.8933 23.2667 10.9986 23.0016 10.9986C22.7364 10.9986 22.4821 10.8933 22.2946 10.7058C22.1071 10.5183 22.0018 10.2639 22.0018 9.99877V7.99912H20.0021C19.7369 7.99912 19.4826 7.89379 19.2951 7.70628C19.1076 7.51878 19.0023 7.26447 19.0023 6.9993ZM32 12.9982C32 13.2634 31.8947 13.5177 31.7072 13.7052C31.5197 13.8927 31.2653 13.9981 31.0002 13.9981H30.0004V14.9979C30.0004 15.2631 29.895 15.5174 29.7075 15.7049C29.52 15.8924 29.2657 15.9977 29.0005 15.9977C28.7354 15.9977 28.481 15.8924 28.2935 15.7049C28.106 15.5174 28.0007 15.2631 28.0007 14.9979V13.9981H27.0009C26.7357 13.9981 26.4814 13.8927 26.2939 13.7052C26.1064 13.5177 26.0011 13.2634 26.0011 12.9982C26.0011 12.7331 26.1064 12.4788 26.2939 12.2913C26.4814 12.1038 26.7357 11.9984 27.0009 11.9984H28.0007V10.9986C28.0007 10.7334 28.106 10.4791 28.2935 10.2916C28.481 10.1041 28.7354 9.99877 29.0005 9.99877C29.2657 9.99877 29.52 10.1041 29.7075 10.2916C29.895 10.4791 30.0004 10.7334 30.0004 10.9986V11.9984H31.0002C31.2653 11.9984 31.5197 12.1038 31.7072 12.2913C31.8947 12.4788 32 12.7331 32 12.9982Z" fill="white"/>
</svg>
