<svg width="35" height="35" viewBox="0 0 35 35" fill="none" xmlns="http://www.w3.org/2000/svg">
<path d="M5 8.84615C6.35084 7.27773 7.981 5.97361 9.80769 5M30 8.84615C28.6492 7.27773 27.019 5.97361 25.1923 5M17.5 30C20.3052 30 22.9955 28.8856 24.979 26.9021C26.9626 24.9185 28.0769 22.2283 28.0769 19.4231C28.0769 16.6179 26.9626 13.9276 24.979 11.9441C22.9955 9.96051 20.3052 8.84615 17.5 8.84615C14.6948 8.84615 12.0045 9.96051 10.021 11.9441C8.03743 13.9276 6.92308 16.6179 6.92308 19.4231C6.92308 22.2283 8.03743 24.9185 10.021 26.9021C12.0045 28.8856 14.6948 30 17.5 30Z" stroke="white" stroke-width="2.2" stroke-linecap="round" stroke-linejoin="round"/>
<path d="M17.5 13.6538V19.423H22.3077" stroke="white" stroke-width="2.2" stroke-linecap="round" stroke-linejoin="round"/>
</svg>
