<svg width="35" height="35" viewBox="0 0 35 35" fill="none" xmlns="http://www.w3.org/2000/svg">
<path d="M33.6095 16.6291C33.47 16.384 33.2831 16.1691 33.0596 15.9971C32.8361 15.825 32.5806 15.6992 32.308 15.627C31.3189 15.3723 30.2968 15.27 29.2769 15.3234C29.8238 12.6096 29.4136 10.4631 28.9953 9.19023C28.8285 8.66737 28.473 8.22536 27.9981 7.95035C27.5232 7.67535 26.9628 7.58707 26.4263 7.70273C25.0351 8.01249 23.7122 8.57407 22.523 9.35977C21.652 7.58062 20.3839 6.02533 18.8166 4.81387C18.4367 4.52899 17.9748 4.375 17.5 4.375C17.0252 4.375 16.5632 4.52899 16.1834 4.81387C14.6157 6.02498 13.3476 7.58035 12.4769 9.35977C11.2877 8.57407 9.96486 8.01249 8.57361 7.70273C8.03712 7.58707 7.47679 7.67535 7.00186 7.95035C6.52692 8.22536 6.17142 8.66737 6.00466 9.19023C5.59451 10.4631 5.18435 12.6082 5.72302 15.3234C4.70312 15.27 3.68102 15.3723 2.69197 15.627C2.41933 15.6992 2.16382 15.825 1.94034 15.9971C1.71687 16.1691 1.52992 16.384 1.3904 16.6291C1.2444 16.8802 1.14985 17.1578 1.1123 17.4459C1.07474 17.7339 1.09492 18.0265 1.17165 18.3066C1.63513 20.0252 3.05837 23.2941 7.36912 25.8699C11.6799 28.4457 15.467 28.4375 17.5068 28.4375C19.5467 28.4375 23.3406 28.4375 27.624 25.8699C31.9347 23.2941 33.358 20.0252 33.8215 18.3066C33.8992 18.0269 33.9205 17.7346 33.8841 17.4466C33.8478 17.1586 33.7544 16.8807 33.6095 16.6291ZM8.08552 9.86289C8.08716 9.8561 8.09132 9.8502 8.09717 9.84639C8.10301 9.84258 8.1101 9.84114 8.11697 9.84238C9.38915 10.1297 10.5897 10.6725 11.6457 11.4379C11.1649 13.0109 10.9261 14.6479 10.9375 16.2928C10.9375 18.8549 11.4529 20.9412 12.183 22.6201C11.1451 21.5813 10.247 20.4116 9.5115 19.1406C7.04783 14.8504 7.56052 11.4844 8.08552 9.86289ZM8.49568 23.9928C4.84939 21.8162 3.66677 19.1475 3.28122 17.7324C4.28722 17.4847 5.33113 17.4304 6.3574 17.5725C6.69997 18.4902 7.1184 19.3779 7.60837 20.2262C8.81135 22.3001 10.3873 24.1337 12.2568 25.6348C10.9349 25.2546 9.66851 24.7025 8.49021 23.9928H8.49568ZM17.5 26.0312C16.2244 25.0824 13.125 22.1717 13.125 16.2928C13.125 10.4863 16.1847 7.55234 17.5 6.5625C18.8152 7.55508 21.875 10.4891 21.875 16.2955C21.875 22.1717 18.7756 25.0824 17.5 26.0312ZM23.3543 11.4379C24.4104 10.673 25.6109 10.1306 26.883 9.84375C26.8899 9.84251 26.8969 9.84394 26.9028 9.84775C26.9086 9.85157 26.9128 9.85747 26.9144 9.86426C27.4394 11.4844 27.9521 14.8504 25.4885 19.1406C24.7536 20.4133 23.8555 21.5844 22.817 22.6242C23.547 20.948 24.0625 18.859 24.0625 16.2969C24.0742 14.6507 23.8354 13.0123 23.3543 11.4379ZM31.7187 17.7352C31.34 19.1365 30.1601 21.8107 26.5111 23.9928C25.3327 24.702 24.0664 25.2536 22.7445 25.6334C24.614 24.1324 26.19 22.2987 27.3929 20.2248C27.8829 19.3765 28.3014 18.4889 28.6439 17.5711C29.6699 17.4298 30.7134 17.485 31.7187 17.7338V17.7352Z" fill="white"/>
</svg>
