<svg width="35" height="35" viewBox="0 0 35 35" fill="none" xmlns="http://www.w3.org/2000/svg">
<path d="M29.5312 2.1875C29.8213 2.1875 30.0995 2.30273 30.3046 2.50785C30.5097 2.71297 30.625 2.99117 30.625 3.28125V4.375H31.7187C32.0088 4.375 32.287 4.49023 32.4921 4.69535C32.6972 4.90047 32.8125 5.17867 32.8125 5.46875C32.8125 5.75883 32.6972 6.03703 32.4921 6.24215C32.287 6.44727 32.0088 6.5625 31.7187 6.5625H30.625V7.65625C30.625 7.94633 30.5097 8.22453 30.3046 8.42965C30.0995 8.63477 29.8213 8.75 29.5312 8.75C29.2411 8.75 28.9629 8.63477 28.7578 8.42965C28.5527 8.22453 28.4375 7.94633 28.4375 7.65625V6.5625H27.3437C27.0536 6.5625 26.7754 6.44727 26.5703 6.24215C26.3652 6.03703 26.25 5.75883 26.25 5.46875C26.25 5.17867 26.3652 4.90047 26.5703 4.69535C26.7754 4.49023 27.0536 4.375 27.3437 4.375H28.4375V3.28125C28.4375 2.99117 28.5527 2.71297 28.7578 2.50785C28.9629 2.30273 29.2411 2.1875 29.5312 2.1875ZM7.65622 6.5625C7.9463 6.5625 8.2245 6.67773 8.42962 6.88285C8.63474 7.08797 8.74997 7.36617 8.74997 7.65625V8.75H9.84372C10.1338 8.75 10.412 8.86523 10.6171 9.07035C10.8222 9.27547 10.9375 9.55367 10.9375 9.84375C10.9375 10.1338 10.8222 10.412 10.6171 10.6171C10.412 10.8223 10.1338 10.9375 9.84372 10.9375H8.74997V12.0312C8.74997 12.3213 8.63474 12.5995 8.42962 12.8046C8.2245 13.0098 7.9463 13.125 7.65622 13.125C7.36614 13.125 7.08794 13.0098 6.88282 12.8046C6.67771 12.5995 6.56247 12.3213 6.56247 12.0312V10.9375H5.46872C5.17864 10.9375 4.90044 10.8223 4.69532 10.6171C4.49021 10.412 4.37497 10.1338 4.37497 9.84375C4.37497 9.55367 4.49021 9.27547 4.69532 9.07035C4.90044 8.86523 5.17864 8.75 5.46872 8.75H6.56247V7.65625C6.56247 7.36617 6.67771 7.08797 6.88282 6.88285C7.08794 6.67773 7.36614 6.5625 7.65622 6.5625ZM27.3437 26.25C27.6338 26.25 27.912 26.1348 28.1171 25.9296C28.3222 25.7245 28.4375 25.4463 28.4375 25.1562C28.4375 24.8662 28.3222 24.588 28.1171 24.3829C27.912 24.1777 27.6338 24.0625 27.3437 24.0625H26.25V22.9688C26.25 22.6787 26.1347 22.4005 25.9296 22.1954C25.7245 21.9902 25.4463 21.875 25.1562 21.875C24.8661 21.875 24.5879 21.9902 24.3828 22.1954C24.1777 22.4005 24.0625 22.6787 24.0625 22.9688V24.0625H22.9687C22.6786 24.0625 22.4004 24.1777 22.1953 24.3829C21.9902 24.588 21.875 24.8662 21.875 25.1562C21.875 25.4463 21.9902 25.7245 22.1953 25.9296C22.4004 26.1348 22.6786 26.25 22.9687 26.25H24.0625V27.3438C24.0625 27.6338 24.1777 27.912 24.3828 28.1171C24.5879 28.3223 24.8661 28.4375 25.1562 28.4375C25.4463 28.4375 25.7245 28.3223 25.9296 28.1171C26.1347 27.912 26.25 27.6338 26.25 27.3438V26.25H27.3437ZM19.0968 9.98156C19.8824 9.19631 20.9477 8.75528 22.0584 8.75549C23.1691 8.75569 24.2343 9.19712 25.0195 9.98266C25.8048 10.7682 26.2458 11.8335 26.2456 12.9442C26.2454 14.0549 25.8039 15.1201 25.0184 15.9053L9.33403 31.5897C8.5485 32.3749 7.48319 32.816 6.37248 32.8158C5.26177 32.8156 4.19663 32.3741 3.41138 31.5886C2.62613 30.8031 2.1851 29.7378 2.1853 28.627C2.18551 27.5163 2.62693 26.4512 3.41247 25.6659L19.0968 9.98156ZM18.0468 14.1247L4.95903 27.2125C4.58396 27.5876 4.37325 28.0963 4.37325 28.6267C4.37325 29.1572 4.58396 29.6659 4.95903 30.0409C5.33411 30.416 5.84282 30.6267 6.37325 30.6267C6.90369 30.6267 7.4124 30.416 7.78747 30.0409L20.8753 16.9531L18.0468 14.1247ZM22.4218 15.4066L23.4718 14.3566C23.6611 14.1717 23.8117 13.951 23.915 13.7075C24.0183 13.4639 24.0723 13.2023 24.0738 12.9377C24.0752 12.6732 24.0242 12.411 23.9236 12.1663C23.8229 11.9216 23.6748 11.6993 23.4876 11.5123C23.3005 11.3253 23.0781 11.1773 22.8333 11.0769C22.5886 10.9765 22.3263 10.9256 22.0618 10.9273C21.7972 10.929 21.5356 10.9831 21.2922 11.0867C21.0487 11.1902 20.8282 11.341 20.6434 11.5303L19.5934 12.5803L22.4218 15.4066Z" fill="white"/>
</svg>
